<?xml version="1.0" encoding="UTF-8" standalone="no"?>
<!-- Created with Inkscape (http://www.inkscape.org/) -->

<svg
   version="1.1"
   id="svg1"
   width="256"
   height="256"
   viewBox="0 0 256 256"
   xmlns="http://www.w3.org/2000/svg"
   xmlns:svg="http://www.w3.org/2000/svg">
  <defs
     id="defs1" />
  <g
     id="g1">
    <g
       id="g2">
      <path
         style="fill:#fc8f00"
         d="M 35.156341,225.7695 C 33.830669,220.48761 35.586075,86.547258 36.999495,85.133838 72.0269,50.106433 98.694977,160.76107 65.832351,204.77085 46.242034,231.0063 37.903333,236.71439 35.156341,225.7695 Z m 47.510326,2.57086 c 0,-2.16867 28.043433,-38.28223 30.431603,-39.18898 1.22928,-0.46675 6.73506,-1.53111 12.23506,-2.36525 54.38812,-8.2486 68.24675,-79.34854 21.33418,-109.452253 C 132.47632,68.227415 128.13727,67.552538 80.008006,66.965961 29.730042,66.353196 34.707501,68.510359 34.707501,47.333333 c 0,-21.791434 -6.27867,-19.581896 54.090876,-19.035223 58.029253,0.52548 59.848073,0.784505 79.136283,11.270123 82.57052,44.887674 69.74247,160.724847 -20.64941,186.463947 -9.21502,2.62398 -64.618583,4.60299 -64.618583,2.30818 z"
         id="path3" />
      <path
         style="fill:#141413"
         d="M 0,128 C 0,0 0,0 128,0 256,0 256,0 256,128 256,256 256,256 128,256 0,256 0,256 0,128 Z m 49.567451,97.66667 C 88.346874,183.84195 94.316908,84.970342 58.103626,84.296374 33.155093,83.832054 35.914206,75.465426 35.026807,154.27363 c -0.909664,80.78555 0.304527,86.74709 14.540644,71.39304 z m 97.717799,0.36551 C 237.67713,200.29308 250.50518,84.455907 167.93466,39.568233 148.64645,29.082615 146.82763,28.82359 88.798377,28.29811 28.428831,27.751437 34.707501,25.541899 34.707501,47.333333 c 0,21.177026 -4.977459,19.019863 45.300505,19.632628 48.129264,0.586577 52.468314,1.261454 66.659504,10.367916 46.91257,30.103713 33.05394,101.203653 -21.33418,109.452253 -5.5,0.83414 -11.00578,1.8985 -12.23506,2.36525 -2.38817,0.90675 -30.431603,37.02031 -30.431603,39.18898 0,2.29481 55.403563,0.3158 64.618583,-2.30818 z"
         id="path2" />
    </g>
  </g>
</svg>
